# xmcd
#
# Track frame offsets: 
#        150
#        14086
#        29888
#        50659
#        66624
#        86175
#        101215
#        118048
#        132898
#        148332
#        159045
#        172222
#
# Disc length: 2673 seconds
#
# Revision: 0
# Processed by: cddbd v1.5.2PL0 Copyright (c) Steve Scherf et al.
# Submitted via: ExactAudioCopy v1.0b3
#
DISCID=c00a6f0c
DTITLE=Hardcore Troubadours - Shotgun Acoustica
DYEAR=2010
DGENRE=Country
TTITLE0=My Uncle
TTITLE1=Enough To Go Round
TTITLE2=Make A Deal
TTITLE3=Steel Rails Hum
TTITLE4=Rust
TTITLE5=Carrie Brown
TTITLE6=If You Go I Will Follow
TTITLE7=Turn The Music Up
TTITLE8=Rag Mama Rag
TTITLE9=Gone Fishing
TTITLE10=Mercenary Song
TTITLE11=Window
EXTD=
EXTT0=
EXTT1=
EXTT2=
EXTT3=
EXTT4=
EXTT5=
EXTT6=
EXTT7=
EXTT8=
EXTT9=
EXTT10=
EXTT11=
PLAYORDER=
